<svg width="63" height="63" viewBox="0 0 63 63" fill="none" xmlns="http://www.w3.org/2000/svg">
<g clip-path="url(#clip0_260_28)">
<path d="M0 0H63V63H0V0Z" fill="#F7DF1E"/>
<path d="M16.5647 52.6468L21.3857 49.7291C22.3159 51.3782 23.162 52.7735 25.1915 52.7735C27.1369 52.7735 28.3637 52.0126 28.3637 49.0526V28.9226H34.2839V49.1363C34.2839 55.2682 30.6895 58.0594 25.4452 58.0594C20.7092 58.0594 17.9601 55.6066 16.5645 52.6463M37.4996 52.0124L42.3201 49.2214C43.5892 51.2938 45.2386 52.8161 48.1562 52.8161C50.6096 52.8161 52.1737 51.5896 52.1737 49.8979C52.1737 47.8681 50.5667 47.149 47.8602 45.9653L46.3804 45.3304C42.109 43.5125 39.2757 41.2288 39.2757 36.4078C39.2757 31.9673 42.6588 28.584 47.9451 28.584C51.7089 28.584 54.4154 29.8952 56.3605 33.3205L51.7507 36.2811C50.7356 34.4627 49.6365 33.7438 47.9449 33.7438C46.2109 33.7438 45.1113 34.8434 45.1113 36.2811C45.1113 38.0571 46.2109 38.7764 48.7481 39.876L50.2281 40.5102C55.2607 42.6672 58.094 44.866 58.094 49.8135C58.094 55.1424 53.9075 58.0601 48.283 58.0601C42.7855 58.0601 39.2331 55.4382 37.4994 52.0126" fill="black"/>
</g>
<defs>
<clipPath id="clip0_260_28">
<rect width="63" height="63" fill="white"/>
</clipPath>
</defs>
</svg>
