<svg width="600" height="450" viewBox="0 0 600 450" fill="none" xmlns="http://www.w3.org/2000/svg">
<g opacity="0.2">
<path opacity="0.6" d="M60 287.498L199.833 206.765L430.15 339.888C432.148 341.042 432.148 343.926 430.15 345.079L300.364 420.011C296.929 421.994 292.697 421.994 289.262 420.011L60 287.498Z" fill="url(#paint0_linear_111_3)"/>
</g>
<g opacity="0.5">
<path opacity="0.6" d="M60 273.224L199.833 192.491L430.15 325.615C432.148 326.769 432.148 329.653 430.15 330.806L300.364 405.738C296.929 407.721 292.697 407.721 289.262 405.738L60 273.224Z" fill="url(#paint1_linear_111_3)"/>
</g>
<path opacity="0.6" d="M60 258.95L199.833 178.217L430.15 311.341C432.148 312.495 432.148 315.379 430.15 316.532L300.364 391.464C296.929 393.447 292.697 393.447 289.262 391.464L60 258.95Z" fill="url(#paint2_linear_111_3)"/>
<path opacity="0.3" d="M171.734 231.786L145.749 216.783L171.733 201.781L197.718 216.784L171.734 231.786Z" fill="#42E8E0"/>
<path opacity="0.5" d="M171.734 214.504L145.749 199.502L171.733 184.5L197.718 199.502L171.734 214.504Z" fill="#42E8E0"/>
<path opacity="0.7" d="M171.734 200.651L145.749 185.649L171.733 170.647L197.718 185.65L171.734 200.651Z" fill="#42E8E0"/>
<path d="M171.734 201.389C171.606 201.389 171.48 201.356 171.365 201.29L145.38 186.288C145.152 186.156 145.011 185.913 145.011 185.649C145.011 185.385 145.152 185.142 145.38 185.01L171.364 170.008C171.593 169.876 171.873 169.876 172.101 170.008L198.086 185.01C198.314 185.142 198.455 185.385 198.455 185.649C198.455 185.913 198.314 186.156 198.086 186.288L172.102 201.29C171.988 201.356 171.861 201.389 171.734 201.389ZM147.224 185.649L171.734 199.8L196.243 185.65L171.733 171.499L147.224 185.649Z" fill="#42E8E0"/>
<path d="M294.94 393.525C292.662 393.525 290.42 392.926 288.458 391.795L213.733 348.652C212.562 347.974 211.862 346.762 211.862 345.41C211.862 344.058 212.561 342.847 213.732 342.17L348.937 264.109C349.165 263.978 349.448 263.978 349.674 264.109L430.516 310.782C431.687 311.46 432.385 312.671 432.385 314.023C432.385 315.376 431.686 316.587 430.516 317.263L301.424 391.795C299.461 392.927 297.219 393.525 294.94 393.525ZM349.307 265.599L214.47 343.446C213.76 343.856 213.337 344.59 213.337 345.409C213.337 346.229 213.761 346.964 214.471 347.374L289.196 390.518C292.673 392.524 297.209 392.524 300.688 390.518L429.779 315.986C430.488 315.577 430.912 314.842 430.912 314.023C430.912 313.204 430.488 312.469 429.779 312.059L349.307 265.599Z" fill="#42E8E0"/>
<path d="M349.473 233.95L331.488 127.25L332.934 126.641L330.761 125.395L330.765 125.408C330.343 125.127 329.747 125.144 329.091 125.524L185.358 208.508C184.178 209.189 183.284 210.937 183.492 212.159L201.62 319.707C201.715 320.267 201.992 320.639 202.377 320.802L202.375 320.803L204.501 322.031L204.866 320.046L204.745 320.083L347.608 237.601C348.787 236.919 349.68 235.171 349.473 233.95Z" fill="url(#paint3_linear_111_3)"/>
<path d="M186.159 211.426L183.796 210.381C183.531 210.986 183.401 211.623 183.492 212.16L201.62 319.708C201.715 320.268 201.992 320.64 202.377 320.803L202.375 320.804L204.501 322.032L204.866 320.047L204.745 320.084L211.974 315.91L186.159 211.426Z" fill="url(#paint4_linear_111_3)"/>
<path d="M349.473 233.95L331.488 127.25L332.588 126.787C332.213 126.11 331.429 125.959 330.534 126.476L186.801 209.46C185.621 210.142 184.727 211.889 184.935 213.111L203.063 320.659C203.111 320.939 203.205 321.171 203.333 321.356L204.177 321.844C204.292 321.854 204.412 321.849 204.538 321.829L204.866 320.046L204.745 320.083L347.608 237.601C348.787 236.919 349.681 235.171 349.473 233.95Z" fill="#42E8E0"/>
<path d="M349.862 238.894L206.129 321.878C205.019 322.519 204.069 322.149 203.874 321L185.746 213.452C185.539 212.23 186.432 210.482 187.612 209.801L331.345 126.817C332.455 126.176 333.405 126.546 333.6 127.695L351.728 235.243C351.935 236.465 351.042 238.213 349.862 238.894Z" fill="#24126A"/>
<g opacity="0.51">
<path d="M329.467 133.682L190.92 213.672L208.101 314.96L346.555 235.023L329.467 133.682Z" fill="#453C9E"/>
</g>
<path d="M440.212 289.812L432.368 293.908L353.714 248.497C352.398 247.737 350.1 247.833 348.58 248.71L212.924 327.031C211.626 326.305 205.707 323.458 205.707 323.458L208.578 330.939C208.578 330.939 208.588 330.931 208.59 330.93C208.709 331.263 208.964 331.573 209.393 331.821L292.232 379.648C293.548 380.408 295.846 380.313 297.366 379.435L436.185 299.288C436.809 298.928 437.191 298.492 437.35 298.05L437.361 298.057L440.212 289.812Z" fill="url(#paint5_linear_111_3)"/>
<path d="M439 291.101L296.729 373.241C295.172 374.14 292.816 374.238 291.467 373.459L206.568 324.443C205.219 323.664 205.388 322.304 206.946 321.405L349.217 239.265C350.774 238.366 353.13 238.268 354.479 239.047L439.378 288.063C440.726 288.842 440.557 290.202 439 291.101Z" fill="url(#paint6_linear_111_3)"/>
<path d="M439 290.281L296.729 372.421C295.172 373.32 292.816 373.418 291.467 372.639L206.568 323.623C206.126 323.368 205.864 323.048 205.743 322.705C205.53 323.344 205.786 323.991 206.568 324.443L291.467 373.459C292.816 374.238 295.171 374.14 296.729 373.241L439 291.101C440.048 290.496 440.451 289.686 440.202 288.981C440.047 289.444 439.654 289.903 439 290.281Z" fill="white"/>
<path d="M253.816 355.473V353.913C253.816 353.765 253.906 353.697 254.017 353.761L259.52 356.938C259.631 357.002 259.721 357.174 259.721 357.322V358.882C259.721 359.03 259.631 359.098 259.52 359.034L254.017 355.857C253.905 355.793 253.816 355.621 253.816 355.473Z" fill="#2842A2"/>
<path d="M262.045 360.224V358.664C262.045 358.516 262.135 358.448 262.246 358.512L267.749 361.689C267.86 361.753 267.95 361.925 267.95 362.073V363.633C267.95 363.781 267.86 363.849 267.749 363.785L262.246 360.608C262.134 360.544 262.045 360.372 262.045 360.224Z" fill="#2842A2"/>
<path d="M228.702 319.853L346.93 251.594C347.718 251.139 348.689 251.139 349.477 251.595L391.577 275.953C392.181 276.303 392.181 277.176 391.576 277.525L273.404 345.752C272.617 346.206 271.647 346.207 270.859 345.752L228.702 321.425C228.097 321.076 228.097 320.202 228.702 319.853Z" fill="#ADB1F2"/>
<path d="M228.702 321.425L229.125 321.669L346.929 253.655C347.717 253.2 348.688 253.2 349.476 253.656L391.153 277.769L391.576 277.525C392.181 277.176 392.181 276.303 391.577 275.953L349.477 251.595C348.689 251.139 347.718 251.139 346.93 251.594L228.702 319.853C228.097 320.202 228.097 321.076 228.702 321.425Z" fill="#9198DB"/>
<path d="M352.655 257.764L249.958 317.056L245.392 314.42L348.089 255.128L352.655 257.764Z" fill="#24126A"/>
<path d="M363.849 264.227L267.523 319.841L262.956 317.205L359.282 261.591L363.849 264.227Z" fill="#24126A"/>
<path d="M371.14 268.437L257.727 333.916L253.16 331.28L366.574 265.801L371.14 268.437Z" fill="#24126A"/>
<path d="M378.431 272.647L265.018 338.126L260.452 335.49L373.865 270.01L378.431 272.647Z" fill="#24126A"/>
<path d="M385.723 276.856L272.309 342.336L267.743 339.699L381.156 274.22L385.723 276.856Z" fill="#24126A"/>
<path d="M243.751 320.639L239.185 323.275L234.619 320.639L239.185 318.003L243.751 320.639Z" fill="#24126A"/>
<path d="M259.858 324.267L250.38 329.738L245.814 327.102L255.291 321.63L259.858 324.267Z" fill="#24126A"/>
<path d="M351.482 336.371L383.36 317.966C384.606 317.247 384.606 316.08 383.36 315.361L361.561 302.775C360.315 302.056 358.295 302.056 357.049 302.775L325.171 321.18C323.925 321.899 323.925 323.066 325.171 323.785L346.97 336.371C348.216 337.09 350.236 337.09 351.482 336.371Z" fill="url(#paint7_linear_111_3)"/>
<path d="M325.171 322.246L357.049 303.841C358.295 303.122 360.315 303.122 361.561 303.841L383.36 316.427C383.745 316.649 383.996 316.916 384.143 317.197C384.473 316.568 384.221 315.859 383.36 315.362L361.561 302.776C360.315 302.057 358.295 302.057 357.049 302.776L325.171 321.181C324.31 321.678 324.058 322.387 324.388 323.017C324.535 322.735 324.786 322.468 325.171 322.246Z" fill="#9198DB"/>
<g opacity="0.11">
<mask id="mask0_111_3" style="mask-type:luminance" maskUnits="userSpaceOnUse" x="190" y="133" width="157" height="182">
<path d="M329.467 133.682L190.92 213.672L208.101 314.96L346.555 235.023L329.467 133.682Z" fill="white"/>
</mask>
<g mask="url(#mask0_111_3)">
<path d="M349.358 239.096L207.087 321.236C205.53 322.135 203.174 322.233 201.825 321.454L116.926 272.438C115.577 271.659 115.746 270.299 117.304 269.4L259.575 187.26C261.132 186.361 263.488 186.263 264.837 187.042L349.736 236.058C351.084 236.837 350.915 238.197 349.358 239.096Z" fill="url(#paint8_linear_111_3)"/>
<path d="M206.663 253.823L238.541 235.418C239.787 234.699 239.787 233.532 238.541 232.813L216.742 220.227C215.496 219.508 213.476 219.508 212.23 220.227L180.352 238.632C179.106 239.351 179.106 240.518 180.352 241.237L202.151 253.823C203.397 254.542 205.417 254.542 206.663 253.823Z" fill="url(#paint9_linear_111_3)"/>
<path d="M180.351 239.698L212.229 221.293C213.475 220.574 215.495 220.574 216.741 221.293L238.54 233.879C238.925 234.101 239.176 234.368 239.323 234.649C239.653 234.02 239.401 233.311 238.54 232.814L216.741 220.228C215.495 219.509 213.475 219.509 212.229 220.228L180.351 238.633C179.49 239.13 179.238 239.839 179.568 240.469C179.715 240.186 179.967 239.92 180.351 239.698Z" fill="#9198DB"/>
<path d="M166.338 282.586L284.566 214.327C285.354 213.872 286.325 213.872 287.113 214.328L329.214 238.686C329.818 239.036 329.818 239.909 329.213 240.258L211.04 308.485C210.253 308.939 209.283 308.94 208.495 308.485L166.338 284.158C165.733 283.809 165.732 282.935 166.338 282.586Z" fill="#ADB1F2"/>
<path d="M166.338 284.158L166.761 284.402L284.565 216.388C285.353 215.933 286.324 215.933 287.112 216.389L328.789 240.502L329.212 240.258C329.817 239.909 329.817 239.036 329.213 238.686L287.112 214.328C286.324 213.872 285.353 213.872 284.565 214.327L166.337 282.586C165.732 282.935 165.733 283.809 166.338 284.158Z" fill="#9198DB"/>
<path d="M318.195 237.025L215.199 296.49L219.278 298.846L322.275 239.38L318.195 237.025Z" fill="#24126A"/>
<path d="M307.342 230.759L209.445 287.28L213.525 289.635L311.422 233.115L307.342 230.759Z" fill="#24126A"/>
<path d="M202.136 291.5L192.993 296.779L197.073 299.135L206.216 293.856L202.136 291.5Z" fill="#24126A"/>
<path d="M210.212 299.369L203.845 303.045L207.925 305.4L214.292 301.725L210.212 299.369Z" fill="#24126A"/>
<path d="M300.542 226.833L186.192 292.853L190.272 295.209L304.622 229.189L300.542 226.833Z" fill="#24126A"/>
<path d="M293.743 222.907L179.393 288.927L183.473 291.283L297.823 225.263L293.743 222.907Z" fill="#24126A"/>
<path d="M286.943 218.982L172.593 285.001L176.673 287.357L291.023 221.337L286.943 218.982Z" fill="#24126A"/>
</g>
</g>
<path d="M243.089 276.342L254.298 269.864L254.627 271.81L243.418 278.288L243.089 276.342Z" fill="#42E8E0"/>
<path d="M256.101 268.829L262.208 265.299L262.537 267.246L256.429 270.775L256.101 268.829Z" fill="#42E8E0"/>
<path d="M271.711 259.814L276.13 257.26L276.459 259.207L272.04 261.761L271.711 259.814Z" fill="#42E8E0"/>
<path d="M268.488 261.677L269.998 260.804L270.327 262.75L268.816 263.623L268.488 261.677Z" fill="#42E8E0"/>
<path d="M264.034 264.252L266.776 262.667L267.105 264.613L264.362 266.198L264.034 264.252Z" fill="#42E8E0"/>
<path d="M251.958 261.455L256.377 258.901L256.706 260.847L252.287 263.401L251.958 261.455Z" fill="#42E8E0"/>
<path d="M241.587 267.449L250.245 262.445L250.574 264.391L241.916 269.396L241.587 267.449Z" fill="#42E8E0"/>
<path d="M254.001 235.904L262.659 230.9L262.988 232.846L254.329 237.85L254.001 235.904Z" fill="#42E8E0"/>
<path d="M249.546 238.479L252.288 236.894L252.617 238.84L249.874 240.425L249.546 238.479Z" fill="#42E8E0"/>
<path d="M255.444 244.809L264.103 239.804L264.431 241.751L255.773 246.755L255.444 244.809Z" fill="#42E8E0"/>
<path d="M250.99 247.383L253.732 245.798L254.061 247.744L251.318 249.329L250.99 247.383Z" fill="#42E8E0"/>
<path d="M247.609 197.476L231.299 206.903L230.97 204.957L247.281 195.53L247.609 197.476Z" fill="#42E8E0"/>
<path d="M253.358 194.154L249.322 196.486L248.993 194.54L253.029 192.208L253.358 194.154Z" fill="#42E8E0"/>
<path d="M282.02 192.262L265.709 201.689L265.381 199.743L281.691 190.316L282.02 192.262Z" fill="#42E8E0"/>
<path d="M287.767 188.94L283.732 191.273L283.403 189.326L287.439 186.994L287.767 188.94Z" fill="#42E8E0"/>
<path d="M236.469 208.795L232.049 211.349L231.721 209.403L236.14 206.849L236.469 208.795Z" fill="#42E8E0"/>
<path d="M263.353 203.028L258.934 205.582L258.606 203.636L263.025 201.082L263.353 203.028Z" fill="#42E8E0"/>
<path d="M246.839 202.801L238.181 207.805L237.852 205.859L246.511 200.855L246.839 202.801Z" fill="#42E8E0"/>
<path d="M251.294 200.226L248.552 201.811L248.223 199.865L250.965 198.28L251.294 200.226Z" fill="#42E8E0"/>
<path d="M261.745 194.197L253.086 199.201L252.758 197.255L261.416 192.25L261.745 194.197Z" fill="#42E8E0"/>
<path d="M266.199 191.622L263.457 193.207L263.128 191.261L265.871 189.676L266.199 191.622Z" fill="#42E8E0"/>
<path d="M262.602 198.58L258.183 201.134L257.854 199.188L262.274 196.633L262.602 198.58Z" fill="#42E8E0"/>
<path d="M272.973 192.586L264.315 197.59L263.986 195.644L272.644 190.639L272.973 192.586Z" fill="#42E8E0"/>
<path d="M277.428 190.011L274.685 191.596L274.357 189.65L277.099 188.065L277.428 190.011Z" fill="#42E8E0"/>
<path d="M241.842 210.569L232.8 215.795L232.472 213.849L241.513 208.623L241.842 210.569Z" fill="#42E8E0"/>
<path d="M250.093 205.801L243.555 209.58L243.226 207.633L249.764 203.854L250.093 205.801Z" fill="#42E8E0"/>
<path d="M256.225 202.257L251.806 204.811L251.477 202.865L255.896 200.311L256.225 202.257Z" fill="#42E8E0"/>
<path d="M299.082 182.421L290.04 187.647L289.711 185.7L298.753 180.475L299.082 182.421Z" fill="#42E8E0"/>
<path d="M307.333 177.652L300.794 181.431L300.465 179.485L307.004 175.706L307.333 177.652Z" fill="#42E8E0"/>
<path d="M313.464 174.108L309.045 176.662L308.716 174.716L313.135 172.162L313.464 174.108Z" fill="#42E8E0"/>
<path d="M295.551 241.171L304.592 235.945L304.921 237.891L295.879 243.117L295.551 241.171Z" fill="#42E8E0"/>
<path d="M287.299 245.939L293.838 242.16L294.167 244.107L287.628 247.886L287.299 245.939Z" fill="#42E8E0"/>
<path d="M281.168 249.483L285.587 246.929L285.916 248.876L281.497 251.43L281.168 249.483Z" fill="#42E8E0"/>
<path d="M292.549 247.803L301.591 242.578L301.92 244.524L292.878 249.75L292.549 247.803Z" fill="#42E8E0"/>
<path d="M284.298 252.572L290.837 248.793L291.165 250.74L284.627 254.518L284.298 252.572Z" fill="#42E8E0"/>
<path d="M278.167 256.116L282.586 253.562L282.914 255.508L278.495 258.062L278.167 256.116Z" fill="#42E8E0"/>
<path d="M256.041 239.58L259.095 237.815L259.424 239.762L256.37 241.527L256.041 239.58Z" fill="#42E8E0"/>
<path d="M250.293 242.903L254.329 240.57L254.657 242.517L250.622 244.849L250.293 242.903Z" fill="#42E8E0"/>
<path d="M242.651 214.989L233.609 220.215L233.28 218.269L242.322 213.043L242.651 214.989Z" fill="#42E8E0"/>
<path d="M250.903 210.221L244.364 214L244.035 212.053L250.574 208.274L250.903 210.221Z" fill="#42E8E0"/>
<path d="M257.034 206.677L252.615 209.231L252.286 207.284L256.705 204.73L257.034 206.677Z" fill="#42E8E0"/>
<path d="M237.413 222.896L234.36 224.661L234.031 222.715L237.085 220.95L237.413 222.896Z" fill="#42E8E0"/>
<path d="M243.163 219.574L239.127 221.906L238.798 219.96L242.834 217.627L243.163 219.574Z" fill="#42E8E0"/>
<path d="M251.378 214.826L244.875 218.584L244.547 216.638L251.049 212.879L251.378 214.826Z" fill="#42E8E0"/>
<path d="M260.195 251.84L263.249 250.075L263.577 252.021L260.524 253.786L260.195 251.84Z" fill="#42E8E0"/>
<path d="M254.447 255.162L258.482 252.83L258.811 254.776L254.775 257.109L254.447 255.162Z" fill="#42E8E0"/>
<path d="M246.231 259.91L252.734 256.152L253.063 258.099L246.56 261.857L246.231 259.91Z" fill="#42E8E0"/>
<path d="M264.847 244.622L271.35 240.863L271.679 242.81L265.176 246.568L264.847 244.622Z" fill="#42E8E0"/>
<path d="M254.212 250.419L262.977 245.354L263.305 247.3L254.541 252.366L254.212 250.419Z" fill="#42E8E0"/>
<path d="M249.757 252.994L252.499 251.409L252.828 253.355L250.086 254.94L249.757 252.994Z" fill="#42E8E0"/>
<path d="M245.481 255.465L248.223 253.88L248.552 255.826L245.809 257.412L245.481 255.465Z" fill="#42E8E0"/>
<path d="M246.069 230.341L254.727 225.337L255.056 227.283L246.398 232.288L246.069 230.341Z" fill="#42E8E0"/>
<path d="M241.614 232.916L244.357 231.331L244.685 233.277L241.943 234.862L241.614 232.916Z" fill="#42E8E0"/>
<path d="M246.665 225.113L249.719 223.348L250.047 225.294L246.994 227.059L246.665 225.113Z" fill="#42E8E0"/>
<path d="M257.446 228.676L260.5 226.911L260.829 228.857L257.775 230.622L257.446 228.676Z" fill="#42E8E0"/>
<path d="M261.8 226.162L269.128 221.93L269.457 223.876L262.129 228.109L261.8 226.162Z" fill="#42E8E0"/>
<path d="M270.428 221.182L274.786 218.663L275.115 220.61L270.756 223.128L270.428 221.182Z" fill="#42E8E0"/>
<path d="M240.916 228.436L244.952 226.103L245.281 228.049L241.245 230.382L240.916 228.436Z" fill="#42E8E0"/>
<path d="M240.536 223.867L243.59 222.102L243.919 224.048L240.865 225.814L240.536 223.867Z" fill="#42E8E0"/>
<path d="M234.788 227.19L238.824 224.857L239.152 226.803L235.117 229.136L234.788 227.19Z" fill="#42E8E0"/>
<path d="M253.015 231.233L255.757 229.648L256.086 231.595L253.344 233.18L253.015 231.233Z" fill="#42E8E0"/>
<path d="M248.74 233.704L251.482 232.119L251.811 234.066L249.068 235.651L248.74 233.704Z" fill="#42E8E0"/>
<path d="M269.804 256.05L279.159 250.644L279.487 252.59L270.133 257.996L269.804 256.05Z" fill="#42E8E0"/>
<path d="M259.327 262.106L268.092 257.04L268.421 258.986L259.656 264.052L259.327 262.106Z" fill="#42E8E0"/>
<path d="M254.872 264.68L257.615 263.095L257.943 265.042L255.201 266.627L254.872 264.68Z" fill="#42E8E0"/>
<path d="M250.597 267.151L253.339 265.566L253.668 267.512L250.926 269.098L250.597 267.151Z" fill="#42E8E0"/>
<path d="M248.26 268.502L242.342 271.922L242.671 273.868L248.588 270.448L248.26 268.502Z" fill="#42E8E0"/>
<path opacity="0.7" d="M378.432 399.919L352.447 384.917L378.431 369.915L404.416 384.917L378.432 399.919Z" fill="#42E8E0"/>
<path d="M378.432 400.656C378.305 400.656 378.177 400.623 378.063 400.557L352.079 385.555C351.851 385.423 351.711 385.18 351.711 384.916C351.711 384.652 351.852 384.409 352.079 384.277L378.062 369.275C378.291 369.144 378.572 369.144 378.8 369.275L404.785 384.277C405.013 384.409 405.153 384.652 405.153 384.916C405.153 385.18 405.012 385.423 404.785 385.555L378.801 400.557C378.686 400.623 378.559 400.656 378.432 400.656ZM353.922 384.917L378.432 399.067L402.942 384.917L378.431 370.767L353.922 384.917Z" fill="#42E8E0"/>
<path opacity="0.7" d="M435.882 385.657L422.248 377.786L435.882 369.915L449.515 377.786L435.882 385.657Z" fill="#42E8E0"/>
<path opacity="0.5" d="M435.882 377.786L422.248 369.915L435.882 362.043L449.515 369.915L435.882 377.786Z" fill="#42E8E0"/>
<path opacity="0.3" d="M435.882 369.915L422.248 362.043L435.882 354.172L449.515 362.044L435.882 369.915Z" fill="#42E8E0"/>
<path d="M435.882 386.395C435.755 386.395 435.627 386.362 435.513 386.296L421.879 378.425C421.651 378.293 421.511 378.05 421.511 377.786C421.511 377.522 421.652 377.279 421.879 377.147L435.513 369.276C435.742 369.145 436.023 369.145 436.251 369.276L449.884 377.147C450.112 377.279 450.252 377.522 450.252 377.786C450.252 378.05 450.111 378.293 449.884 378.425L436.251 386.296C436.137 386.361 436.009 386.395 435.882 386.395ZM423.723 377.786L435.882 384.806L448.04 377.786L435.882 370.766L423.723 377.786Z" fill="#42E8E0"/>
<path opacity="0.7" d="M137.515 337.61L123.882 329.738L137.515 321.867L151.148 329.739L137.515 337.61Z" fill="#42E8E0"/>
<path d="M137.515 338.347C137.388 338.347 137.261 338.314 137.146 338.248L123.513 330.377C123.285 330.245 123.144 330.002 123.144 329.738C123.144 329.474 123.285 329.231 123.513 329.099L137.146 321.228C137.375 321.097 137.655 321.097 137.883 321.228L151.517 329.099C151.745 329.231 151.886 329.474 151.886 329.738C151.886 330.002 151.745 330.245 151.517 330.377L137.884 338.248C137.77 338.314 137.643 338.347 137.515 338.347ZM125.356 329.738L137.515 336.758L149.674 329.738L137.515 322.718L125.356 329.738Z" fill="#42E8E0"/>
<path d="M131.388 91.4318L132.602 84.2727H161.047L159.832 91.4318H149.989L145.77 117H137.013L141.232 91.4318H131.388ZM158.957 117L164.391 84.2727H187.977L186.763 91.4318H172.061L171.166 97.0568H184.653L183.439 104.216H169.952L169.057 109.841H183.695L182.48 117H158.957ZM220.86 96.5455H211.975C212.039 95.7891 211.997 95.1072 211.848 94.5C211.699 93.8928 211.443 93.3707 211.081 92.9339C210.718 92.4865 210.244 92.1456 209.658 91.9112C209.072 91.6768 208.375 91.5597 207.565 91.5597C206.01 91.5597 204.619 91.9485 203.394 92.7262C202.169 93.4933 201.152 94.5959 200.342 96.0341C199.532 97.4616 198.957 99.1662 198.616 101.148C198.318 103.065 198.307 104.658 198.584 105.926C198.872 107.194 199.431 108.142 200.262 108.77C201.104 109.399 202.196 109.713 203.538 109.713C204.433 109.713 205.253 109.607 205.999 109.393C206.755 109.18 207.426 108.877 208.012 108.483C208.609 108.078 209.115 107.598 209.531 107.044C209.957 106.48 210.282 105.857 210.505 105.175H219.454C219.113 106.56 218.506 107.977 217.632 109.425C216.759 110.864 215.63 112.19 214.245 113.404C212.86 114.608 211.23 115.583 209.355 116.329C207.48 117.075 205.37 117.447 203.027 117.447C199.958 117.447 197.311 116.776 195.085 115.434C192.869 114.092 191.26 112.131 190.259 109.553C189.268 106.975 189.071 103.832 189.667 100.125C190.264 96.5455 191.441 93.5465 193.199 91.1282C194.957 88.7099 197.093 86.8881 199.607 85.663C202.121 84.4379 204.795 83.8253 207.629 83.8253C209.77 83.8253 211.688 84.1076 213.382 84.6722C215.086 85.2369 216.519 86.0625 217.68 87.1491C218.852 88.2251 219.715 89.5515 220.269 91.1282C220.823 92.7049 221.02 94.5107 220.86 96.5455ZM221.536 117L226.969 84.2727H235.854L233.744 97.0568H245.506L247.615 84.2727H256.5L251.067 117H242.182L244.291 104.216H232.53L230.421 117H221.536ZM285.6 94.5C285.696 93.4453 285.44 92.6197 284.833 92.0231C284.226 91.4158 283.203 91.1122 281.765 91.1122C280.848 91.1122 280.081 91.2187 279.464 91.4318C278.856 91.6449 278.382 91.9379 278.041 92.3107C277.711 92.6836 277.503 93.1151 277.418 93.6051C277.322 93.9886 277.328 94.3402 277.434 94.6598C277.551 94.9687 277.77 95.2511 278.089 95.5067C278.419 95.7624 278.851 95.9915 279.384 96.1939C279.927 96.3963 280.571 96.5774 281.317 96.7372L283.874 97.3125C285.621 97.696 287.086 98.2021 288.269 98.8306C289.462 99.4485 290.399 100.184 291.081 101.036C291.763 101.888 292.21 102.842 292.423 103.896C292.647 104.951 292.652 106.102 292.439 107.348C292.077 109.5 291.241 111.322 289.93 112.813C288.62 114.305 286.91 115.439 284.801 116.217C282.691 116.995 280.252 117.384 277.482 117.384C274.648 117.384 272.241 116.963 270.259 116.121C268.288 115.269 266.861 113.969 265.976 112.222C265.103 110.464 264.89 108.222 265.337 105.494H273.775C273.647 106.496 273.753 107.337 274.094 108.019C274.435 108.701 274.984 109.218 275.74 109.569C276.497 109.921 277.439 110.097 278.569 110.097C279.527 110.097 280.348 109.979 281.03 109.745C281.711 109.511 282.249 109.186 282.644 108.77C283.038 108.355 283.277 107.881 283.363 107.348C283.448 106.858 283.363 106.421 283.107 106.038C282.851 105.654 282.388 105.308 281.717 104.999C281.046 104.69 280.124 104.408 278.952 104.152L275.82 103.449C273.04 102.81 270.941 101.755 269.524 100.285C268.107 98.8146 267.606 96.8011 268.022 94.2443C268.363 92.1562 269.22 90.3345 270.595 88.7791C271.979 87.2131 273.737 85.9986 275.868 85.1357C278.009 84.2621 280.38 83.8253 282.979 83.8253C285.621 83.8253 287.832 84.2674 289.611 85.1516C291.401 86.0359 292.684 87.277 293.462 88.875C294.25 90.473 294.464 92.348 294.101 94.5H285.6ZM297.545 91.4318L298.759 84.2727H327.204L325.99 91.4318H316.146L311.927 117H303.17L307.389 91.4318H297.545ZM329.485 117H319.897L336.133 84.2727H348.278L353.647 117H344.059L340.863 93.2855H340.607L329.485 117ZM329.869 104.088H347.894L346.744 110.736H328.718L329.869 104.088ZM389.171 96.5455H380.286C380.35 95.7891 380.307 95.1072 380.158 94.5C380.009 93.8928 379.753 93.3707 379.391 92.9339C379.029 92.4865 378.555 92.1456 377.969 91.9112C377.383 91.6768 376.685 91.5597 375.876 91.5597C374.32 91.5597 372.93 91.9485 371.705 92.7262C370.48 93.4933 369.462 94.5959 368.653 96.0341C367.843 97.4616 367.268 99.1662 366.927 101.148C366.628 103.065 366.618 104.658 366.895 105.926C367.182 107.194 367.742 108.142 368.573 108.77C369.414 109.399 370.506 109.713 371.849 109.713C372.743 109.713 373.564 109.607 374.309 109.393C375.066 109.18 375.737 108.877 376.323 108.483C376.92 108.078 377.426 107.598 377.841 107.044C378.267 106.48 378.592 105.857 378.816 105.175H387.765C387.424 106.56 386.817 107.977 385.943 109.425C385.069 110.864 383.94 112.19 382.555 113.404C381.17 114.608 379.54 115.583 377.665 116.329C375.79 117.075 373.681 117.447 371.337 117.447C368.269 117.447 365.622 116.776 363.395 115.434C361.179 114.092 359.57 112.131 358.569 109.553C357.578 106.975 357.381 103.832 357.978 100.125C358.574 96.5455 359.752 93.5465 361.509 91.1282C363.267 88.7099 365.403 86.8881 367.917 85.663C370.432 84.4379 373.106 83.8253 375.939 83.8253C378.081 83.8253 379.998 84.1076 381.692 84.6722C383.397 85.2369 384.83 86.0625 385.991 87.1491C387.163 88.2251 388.026 89.5515 388.58 91.1282C389.134 92.7049 389.331 94.5107 389.171 96.5455ZM389.846 117L395.279 84.2727H404.164L401.991 97.5043H402.438L414.456 84.2727H424.811L411.387 98.8466L419.633 117H409.022L403.781 104.727L400.137 108.626L398.731 117H389.846Z" fill="white"/>
<defs>
<linearGradient id="paint0_linear_111_3" x1="364.79" y1="382.817" x2="247.314" y2="179.349" gradientUnits="userSpaceOnUse">
<stop stop-color="#42E8E0"/>
<stop offset="0.0185" stop-color="#40DEDA"/>
<stop offset="0.1149" stop-color="#37ADBC"/>
<stop offset="0.2166" stop-color="#2E82A2"/>
<stop offset="0.3219" stop-color="#285E8C"/>
<stop offset="0.4319" stop-color="#22417A"/>
<stop offset="0.5479" stop-color="#1E2A6C"/>
<stop offset="0.6729" stop-color="#1A1A63"/>
<stop offset="0.813" stop-color="#19105D"/>
<stop offset="1" stop-color="#180D5B"/>
</linearGradient>
<linearGradient id="paint1_linear_111_3" x1="364.79" y1="368.543" x2="247.314" y2="165.075" gradientUnits="userSpaceOnUse">
<stop stop-color="#42E8E0"/>
<stop offset="0.0185" stop-color="#40DEDA"/>
<stop offset="0.1149" stop-color="#37ADBC"/>
<stop offset="0.2166" stop-color="#2E82A2"/>
<stop offset="0.3219" stop-color="#285E8C"/>
<stop offset="0.4319" stop-color="#22417A"/>
<stop offset="0.5479" stop-color="#1E2A6C"/>
<stop offset="0.6729" stop-color="#1A1A63"/>
<stop offset="0.813" stop-color="#19105D"/>
<stop offset="1" stop-color="#180D5B"/>
</linearGradient>
<linearGradient id="paint2_linear_111_3" x1="364.789" y1="354.269" x2="247.314" y2="150.801" gradientUnits="userSpaceOnUse">
<stop stop-color="#42E8E0"/>
<stop offset="0.0185" stop-color="#40DEDA"/>
<stop offset="0.1149" stop-color="#37ADBC"/>
<stop offset="0.2166" stop-color="#2E82A2"/>
<stop offset="0.3219" stop-color="#285E8C"/>
<stop offset="0.4319" stop-color="#22417A"/>
<stop offset="0.5479" stop-color="#1E2A6C"/>
<stop offset="0.6729" stop-color="#1A1A63"/>
<stop offset="0.813" stop-color="#19105D"/>
<stop offset="1" stop-color="#180D5B"/>
</linearGradient>
<linearGradient id="paint3_linear_111_3" x1="183.462" y1="223.623" x2="349.503" y2="223.623" gradientUnits="userSpaceOnUse">
<stop stop-color="#C0BFF6"/>
<stop offset="0.2938" stop-color="#C5C4F7"/>
<stop offset="0.6399" stop-color="#D3D2F9"/>
<stop offset="1" stop-color="#E9E9FD"/>
</linearGradient>
<linearGradient id="paint4_linear_111_3" x1="183.462" y1="266.205" x2="211.973" y2="266.205" gradientUnits="userSpaceOnUse">
<stop stop-color="#5761D7"/>
<stop offset="0.1779" stop-color="#5C66D9"/>
<stop offset="0.3876" stop-color="#6A73DF"/>
<stop offset="0.6134" stop-color="#8289E8"/>
<stop offset="0.849" stop-color="#A3A7F5"/>
<stop offset="1" stop-color="#BCBEFF"/>
</linearGradient>
<linearGradient id="paint5_linear_111_3" x1="205.707" y1="314.073" x2="440.212" y2="314.073" gradientUnits="userSpaceOnUse">
<stop stop-color="#5761D7"/>
<stop offset="0.1779" stop-color="#5C66D9"/>
<stop offset="0.3876" stop-color="#6A73DF"/>
<stop offset="0.6134" stop-color="#8289E8"/>
<stop offset="0.849" stop-color="#A3A7F5"/>
<stop offset="1" stop-color="#BCBEFF"/>
</linearGradient>
<linearGradient id="paint6_linear_111_3" x1="284.502" y1="306.253" x2="519.132" y2="306.253" gradientUnits="userSpaceOnUse">
<stop stop-color="#C0BFF6"/>
<stop offset="0.2938" stop-color="#C5C4F7"/>
<stop offset="0.6399" stop-color="#D3D2F9"/>
<stop offset="1" stop-color="#E9E9FD"/>
</linearGradient>
<linearGradient id="paint7_linear_111_3" x1="324.236" y1="319.573" x2="384.295" y2="319.573" gradientUnits="userSpaceOnUse">
<stop stop-color="#C0BFF6"/>
<stop offset="0.2938" stop-color="#C5C4F7"/>
<stop offset="0.6399" stop-color="#D3D2F9"/>
<stop offset="1" stop-color="#E9E9FD"/>
</linearGradient>
<linearGradient id="paint8_linear_111_3" x1="194.86" y1="254.248" x2="429.49" y2="254.248" gradientUnits="userSpaceOnUse">
<stop stop-color="#C0BFF6"/>
<stop offset="0.2938" stop-color="#C5C4F7"/>
<stop offset="0.6399" stop-color="#D3D2F9"/>
<stop offset="1" stop-color="#E9E9FD"/>
</linearGradient>
<linearGradient id="paint9_linear_111_3" x1="179.417" y1="237.025" x2="239.476" y2="237.025" gradientUnits="userSpaceOnUse">
<stop stop-color="#C0BFF6"/>
<stop offset="0.2938" stop-color="#C5C4F7"/>
<stop offset="0.6399" stop-color="#D3D2F9"/>
<stop offset="1" stop-color="#E9E9FD"/>
</linearGradient>
</defs>
</svg>
