<svg width="93" height="83" viewBox="0 0 93 83" fill="none" xmlns="http://www.w3.org/2000/svg">
<g clip-path="url(#clip0_260_22)">
<path d="M76.4645 26.8745C75.4748 26.5342 74.4767 26.219 73.4711 25.9291C73.64 25.2374 73.7955 24.5541 73.9335 23.8828C76.1997 12.8595 74.7182 3.97884 69.6581 1.05491C64.8065 -1.74816 56.872 1.17468 48.8588 8.16306C48.069 8.85303 47.2968 9.56288 46.5429 10.2919C46.0381 9.80714 45.5245 9.33175 45.0022 8.86601C36.6039 1.39383 28.1859 -1.75544 23.1312 1.17686C18.2839 3.98867 16.8486 12.3371 18.8888 22.7842C19.0918 23.8188 19.321 24.8482 19.5761 25.8712C18.3846 26.2105 17.2348 26.5716 16.1344 26.956C6.28803 30.3961 0 35.7871 0 41.3791C0 47.1545 6.75049 52.9474 17.0059 56.46C17.8373 56.7436 18.6757 57.0064 19.5202 57.2481C19.2459 58.3499 19.0024 59.4592 18.79 60.5746C16.845 70.8404 18.3639 78.9915 23.198 81.7855C28.191 84.6709 36.5712 81.7054 44.7308 74.5576C45.3925 73.9765 46.0396 73.3789 46.6715 72.7655C47.488 73.5549 48.3263 74.3214 49.1854 75.064C57.0896 81.8794 64.8958 84.6315 69.7253 81.8299C74.7135 78.9362 76.3348 70.1797 74.23 59.5262C74.0642 58.6916 73.8782 57.8611 73.6723 57.0355C74.2609 56.8608 74.8385 56.6809 75.4016 56.4938C86.0631 52.9543 93 47.2317 93 41.3791C93 35.7667 86.5089 30.3393 76.4645 26.8745ZM74.1522 52.7151C73.6436 52.8837 73.122 53.0464 72.5901 53.2048C71.4131 49.4708 69.8248 45.5007 67.8809 41.3984C69.7358 37.394 71.2631 33.4744 72.407 29.7649C73.3585 30.0408 74.2816 30.3317 75.1716 30.6386C83.7777 33.6077 89.0272 37.9968 89.0272 41.3791C89.0272 44.9816 83.3578 49.6583 74.1522 52.7151ZM70.3327 60.2994C71.2634 65.01 71.396 69.2693 70.7795 72.5991C70.2259 75.5911 69.1121 77.5856 67.7345 78.3847C64.8039 80.0847 58.5362 77.8751 51.7767 72.0461C50.9776 71.3557 50.1978 70.6431 49.4382 69.9092C52.0589 67.0374 54.6778 63.6988 57.2339 59.9907C61.7298 59.591 65.9773 58.9372 69.8292 58.045C70.0147 58.7924 70.1826 59.5441 70.3327 60.2994ZM31.7057 78.0909C28.8424 79.104 26.5617 79.1332 25.183 78.3366C22.2495 76.6413 21.03 70.0964 22.6935 61.3173C22.8912 60.2799 23.1176 59.2482 23.3724 58.2233C27.1818 59.0679 31.3984 59.6751 35.9049 60.0413C38.4784 63.6697 41.1728 67.0046 43.8884 69.9249C43.3113 70.4845 42.7205 71.0297 42.1166 71.5601C38.5082 74.7207 34.8924 76.9631 31.7057 78.0909ZM18.2912 52.6929C13.7564 51.1396 10.0113 49.121 7.44436 46.9182C5.13752 44.939 3.97321 42.9735 3.97321 41.3791C3.97321 37.9855 9.02173 33.6572 17.4422 30.7154C18.4641 30.3586 19.5336 30.0219 20.6435 29.7059C21.8074 33.4992 23.3339 37.4653 25.1761 41.4759C23.3099 45.5458 21.7616 49.5753 20.5864 53.4133C19.8156 53.1921 19.0503 52.9519 18.2912 52.6929ZM22.7879 22.0193C21.0402 13.0688 22.2008 6.31704 25.122 4.62245C28.2331 2.81757 35.1129 5.39093 42.3644 11.8431C42.8373 12.2648 43.3025 12.695 43.7598 13.1336C41.0577 16.0411 38.3879 19.3513 35.8373 22.9582C31.4634 23.3644 27.2766 24.0168 23.4273 24.8908C23.1901 23.9393 22.9769 22.9816 22.7879 22.0193ZM62.904 31.9462C61.9948 30.3724 61.0518 28.8185 60.0758 27.2855C63.0431 27.6615 65.8861 28.1606 68.5559 28.7707C67.7545 31.3452 66.7555 34.0365 65.5795 36.7959C64.72 35.1616 63.8279 33.5447 62.904 31.9462ZM46.5447 15.9793C48.3771 17.9687 50.2124 20.1897 52.0175 22.5996C48.3556 22.4263 44.6877 22.4256 41.0257 22.5974C42.8327 20.2097 44.6836 17.9916 46.5447 15.9793ZM30.0804 31.9731C29.168 33.5588 28.2926 35.1656 27.455 36.7922C26.2983 34.0427 25.3084 31.339 24.5001 28.7281C27.1535 28.1333 29.9831 27.6469 32.9314 27.2778C31.9446 28.8202 30.994 30.386 30.0804 31.9731ZM33.0161 55.7636C29.97 55.4228 27.0979 54.9616 24.4452 54.3828C25.2662 51.7253 26.2779 48.9641 27.4597 46.1556C28.3006 47.7834 29.1797 49.3912 30.096 50.9776C31.0384 52.6085 32.0142 54.2059 33.0161 55.7636ZM46.6544 67.0596C44.7711 65.0239 42.893 62.7716 41.0588 60.3493C42.8396 60.4192 44.6549 60.4549 46.5 60.4549C48.3956 60.4549 50.2694 60.4123 52.1138 60.33C50.3028 62.796 48.4744 65.0516 46.6544 67.0596ZM65.617 46.0121C66.8601 48.8516 67.9078 51.5983 68.7397 54.2102C66.0434 54.8269 63.1321 55.3234 60.0646 55.6922C61.0475 54.1307 61.9994 52.5497 62.9196 50.9503C63.8552 49.3245 64.7545 47.678 65.617 46.0121ZM59.4782 48.9612C58.0695 51.4135 56.5815 53.8192 55.0168 56.1746C52.1823 56.3757 49.3416 56.4757 46.5 56.4742C43.6057 56.4742 40.7907 56.3839 38.0799 56.2077C36.4743 53.8578 34.9579 51.4478 33.5341 48.983C32.117 46.5313 30.7937 44.0265 29.5664 41.4741C30.7906 38.9211 32.1103 36.4151 33.5225 33.9615L33.5221 33.9619C34.9338 31.5076 36.4381 29.108 38.0316 26.7682C40.7972 26.5585 43.6333 26.4493 46.4996 26.4493C49.379 26.4493 52.2191 26.5596 54.9841 26.7707C56.5615 29.107 58.0561 31.4984 59.4651 33.9404C60.8821 36.3886 62.2192 38.8823 63.4743 41.4177C62.2321 43.9789 60.8992 46.495 59.4782 48.9612ZM67.6739 4.50378C70.7879 6.30357 71.9991 13.5613 70.0424 23.079C69.9175 23.6862 69.7772 24.3047 69.6247 24.932C65.7659 24.0394 61.5762 23.3757 57.1896 22.9633C54.6342 19.3167 51.9863 16.0015 49.3281 13.1314C50.0248 12.4585 50.738 11.803 51.4671 11.1656C58.3332 5.17834 64.7502 2.81429 67.6739 4.50378ZM46.5 33.0572C51.0864 33.0572 54.8046 36.7831 54.8046 41.3791C54.8046 45.975 51.0864 49.7009 46.5 49.7009C41.9136 49.7009 38.1954 45.975 38.1954 41.3791C38.1954 36.7831 41.9136 33.0572 46.5 33.0572Z" fill="#00D8FF"/>
</g>
<defs>
<clipPath id="clip0_260_22">
<rect width="93" height="83" fill="white"/>
</clipPath>
</defs>
</svg>
