<svg width="100" height="100" viewBox="0 0 100 100" fill="none" xmlns="http://www.w3.org/2000/svg">
<path d="M16.6667 83.3327C14.375 83.3327 12.4139 82.5174 10.7834 80.8868C9.15282 79.2563 8.33615 77.2938 8.33337 74.9993V24.9993C8.33337 22.7077 9.15004 20.7466 10.7834 19.116C12.4167 17.4855 14.3778 16.6688 16.6667 16.666H83.3334C85.625 16.666 87.5875 17.4827 89.2209 19.116C90.8542 20.7493 91.6695 22.7105 91.6667 24.9993V74.9993C91.6667 77.291 90.8514 79.2535 89.2209 80.8868C87.5903 82.5202 85.6278 83.3355 83.3334 83.3327H16.6667ZM50 54.166L83.3334 33.3327V24.9993L50 45.8327L16.6667 24.9993V33.3327L50 54.166Z" fill="black"/>
</svg>
