<svg width="84" height="68" viewBox="0 0 84 68" fill="none" xmlns="http://www.w3.org/2000/svg">
<path d="M8.66671 67.3333C6.37504 67.3333 4.41393 66.5181 2.78337 64.8875C1.15282 63.2569 0.336152 61.2944 0.333374 59V9C0.333374 6.70834 1.15004 4.74723 2.78337 3.11667C4.41671 1.48612 6.37782 0.66945 8.66671 0.666672H75.3334C77.625 0.666672 79.5875 1.48334 81.2209 3.11667C82.8542 4.75 83.6695 6.71112 83.6667 9V59C83.6667 61.2917 82.8514 63.2542 81.2209 64.8875C79.5903 66.5208 77.6278 67.3361 75.3334 67.3333H8.66671ZM42 38.1667L75.3334 17.3333V9L42 29.8333L8.66671 9V17.3333L42 38.1667Z" fill="#F8F8F8"/>
</svg>
