<svg width="144" height="133" viewBox="0 0 144 133" fill="none" xmlns="http://www.w3.org/2000/svg">
<path d="M116.152 82.4559C116.152 87.1358 112.005 90.9367 106.884 90.9367H36.5041C31.3808 90.9367 27.2363 87.1358 27.2363 82.4559V17.1321C27.2363 12.4459 31.3808 8.65125 36.5041 8.65125H106.884C112.005 8.65125 116.152 12.4459 116.152 17.1321V82.4559Z" fill="white"/>
<path d="M119.039 78.5926C119.039 83.578 114.62 87.6262 109.17 87.6262H34.2207C28.7644 87.6262 24.3477 83.5801 24.3477 78.5926V9.03153C24.3499 4.03988 28.7667 0 34.2207 0H109.17C114.62 0 119.039 4.03988 119.039 9.03153V78.5926Z" fill="#D1D3D4"/>
<path d="M107.046 58.5408C107.046 61.4439 103.745 63.7881 99.6819 63.7881H43.7109C39.6362 63.7881 36.3467 61.4439 36.3467 58.5408V18.0568C36.3467 15.1495 39.6362 12.8054 43.7109 12.8054H99.6819C103.748 12.8054 107.046 15.1495 107.046 18.0568V58.5408Z" fill="black"/>
<path d="M68.0172 12.7992H43.7217C39.6469 12.7992 36.3574 15.1433 36.3574 18.0506V58.5345C36.3574 61.4377 39.6469 63.7818 43.7217 63.7818H90.4699C71.6037 49.8189 60.9949 30.4487 68.0172 12.7992Z" fill="black"/>
<path d="M42.4262 73.9792C42.426 74.3396 42.3488 74.6964 42.1991 75.0292C42.0494 75.3621 41.8302 75.6644 41.554 75.919C41.2777 76.1735 40.9499 76.3753 40.5892 76.5128C40.2285 76.6503 39.842 76.7208 39.4517 76.7202C38.6635 76.7202 37.9075 76.431 37.35 75.9162C36.7926 75.4013 36.4795 74.7031 36.4795 73.975C36.4795 73.2469 36.7926 72.5487 37.35 72.0339C37.9075 71.519 38.6635 71.2298 39.4517 71.2298C39.8428 71.229 40.2302 71.2995 40.5916 71.4374C40.953 71.5753 41.2814 71.7779 41.5578 72.0334C41.8342 72.2889 42.0532 72.5923 42.2023 72.9262C42.3513 73.2601 42.4274 73.618 42.4262 73.9792Z" fill="#4B4B4B"/>
<path d="M111.037 71.5249C111.037 72.2876 110.524 72.9069 109.89 72.9069H83.3692C82.7347 72.9069 82.2217 72.2876 82.2217 71.5249C82.2217 70.7706 82.7347 70.1554 83.3692 70.1554H109.89C110.524 70.1554 111.037 70.7706 111.037 71.5249Z" fill="#5B5B5B"/>
<path d="M93.6066 72.9006C93.6066 74.2514 93.4018 75.3445 93.1566 75.3445H82.6648C82.4151 75.3445 82.2148 74.2535 82.2148 72.9006C82.2148 71.554 82.4151 70.4609 82.6648 70.4609H93.1566C93.4018 70.4609 93.6066 71.554 93.6066 72.9006Z" fill="#5B5B5B"/>
<path d="M39.3509 34.1236C39.0412 34.1236 38.7884 34.0156 38.5923 33.7997C38.3963 33.5838 38.3111 33.3224 38.3366 33.0156C38.3651 32.7145 38.4986 32.4574 38.7372 32.2443C38.9759 32.0312 39.2486 31.9247 39.5554 31.9247C39.848 31.9247 40.0938 32.0312 40.2926 32.2443C40.4943 32.4574 40.581 32.7145 40.5526 33.0156C40.5355 33.2202 40.4659 33.4062 40.3438 33.5739C40.2244 33.7415 40.0767 33.875 39.9006 33.9744C39.7244 34.0739 39.5412 34.1236 39.3509 34.1236ZM40.0966 29.6321C39.7869 29.6321 39.5341 29.5256 39.3381 29.3125C39.142 29.0966 39.0568 28.8338 39.0824 28.5241C39.1108 28.223 39.2443 27.9659 39.483 27.7528C39.7216 27.5398 39.9943 27.4332 40.3011 27.4332C40.5966 27.4332 40.8438 27.5412 41.0426 27.7571C41.2415 27.9702 41.3267 28.2259 41.2983 28.5241C41.2813 28.7315 41.2131 28.919 41.0938 29.0866C40.9744 29.2543 40.8253 29.3878 40.6463 29.4872C40.4702 29.5838 40.2869 29.6321 40.0966 29.6321ZM47.3281 24.8636L42.794 35.3125H41.017L45.5511 24.8636H47.3281ZM52.1445 24.8636L47.6104 35.3125H45.8335L50.3675 24.8636H52.1445ZM43.8381 42.9062C43.8608 42.5852 43.7756 42.3366 43.5824 42.1605C43.392 41.9844 43.0909 41.8963 42.679 41.8963C42.4063 41.8963 42.1733 41.9318 41.9801 42.0028C41.7869 42.071 41.6349 42.1676 41.5241 42.2926C41.4134 42.4148 41.3438 42.5568 41.3153 42.7188C41.2898 42.8466 41.2969 42.9602 41.3366 43.0597C41.3764 43.1591 41.446 43.2472 41.5455 43.3239C41.6477 43.4006 41.7741 43.4673 41.9247 43.5241C42.0781 43.581 42.25 43.6307 42.4403 43.6733L43.1562 43.8438C43.571 43.9375 43.9304 44.0625 44.2344 44.2188C44.5412 44.3722 44.7898 44.5582 44.9801 44.777C45.1705 44.9929 45.3011 45.2415 45.3722 45.5227C45.4432 45.804 45.4489 46.1193 45.3892 46.4688C45.2983 47.0199 45.081 47.4929 44.7372 47.8878C44.3963 48.2827 43.9503 48.5852 43.3991 48.7955C42.8509 49.0057 42.2131 49.1108 41.4858 49.1108C40.7585 49.1108 40.1406 49.0014 39.6321 48.7827C39.1264 48.5611 38.7599 48.2273 38.5327 47.7812C38.3054 47.3352 38.2443 46.7727 38.3494 46.0938H40.3651C40.3338 46.375 40.3693 46.6094 40.4716 46.7969C40.5767 46.9844 40.7386 47.1264 40.9574 47.223C41.1761 47.3196 41.4403 47.3679 41.75 47.3679C42.0341 47.3679 42.2827 47.3295 42.4957 47.2528C42.7116 47.1761 42.8835 47.0696 43.0114 46.9332C43.142 46.7969 43.2216 46.6406 43.25 46.4645C43.2784 46.3026 43.2514 46.1619 43.169 46.0426C43.0895 45.9233 42.9531 45.8196 42.7599 45.7315C42.5696 45.6435 42.3196 45.5639 42.0099 45.4929L41.1364 45.2798C40.4148 45.1037 39.8679 44.8224 39.4957 44.4361C39.1264 44.0497 38.9957 43.5256 39.1037 42.8636C39.1946 42.321 39.419 41.8466 39.777 41.4403C40.1378 41.0341 40.5938 40.7187 41.1449 40.4943C41.6989 40.267 42.3082 40.1534 42.973 40.1534C43.6491 40.1534 44.2173 40.2685 44.6776 40.4986C45.1406 40.7259 45.4744 41.0469 45.679 41.4616C45.8864 41.8736 45.946 42.3551 45.858 42.9062H43.8381ZM47.6552 49H45.3881L49.7816 40.2727H52.5898L54.0856 49H51.8185L50.8597 42.4716H50.7915L47.6552 49ZM47.9279 45.5653H52.6665L52.3938 47.1676H47.6552L47.9279 45.5653ZM56.4741 40.2727H59.0863L60.4073 45.6761H60.5096L63.6204 40.2727H66.2326L64.7837 49H62.7298L63.6204 43.6392H63.5479L60.5735 48.9446H59.2653L58.055 43.6094H57.9826L57.0792 49H55.0252L56.4741 40.2727ZM72.8281 40.2727H74.9332L74 45.902C73.892 46.5526 73.6435 47.1193 73.2543 47.6023C72.8679 48.0824 72.375 48.4545 71.7756 48.7188C71.1761 48.9801 70.5085 49.1108 69.7727 49.1108C69.0341 49.1108 68.4105 48.9801 67.902 48.7188C67.3935 48.4545 67.0256 48.0824 66.7983 47.6023C66.571 47.1193 66.5099 46.5526 66.6151 45.902L67.5483 40.2727H69.6577L68.75 45.7188C68.7017 46.0199 68.7244 46.2884 68.8182 46.5241C68.9148 46.7571 69.071 46.9418 69.2869 47.0781C69.5028 47.2116 69.767 47.2784 70.0795 47.2784C70.3949 47.2784 70.6832 47.2116 70.9446 47.0781C71.206 46.9418 71.4219 46.7571 71.5923 46.5241C71.7628 46.2884 71.8722 46.0199 71.9205 45.7188L72.8281 40.2727ZM74.8065 49L76.2553 40.2727H82.3406L82.0508 41.9858H78.0749L77.7852 43.7756H81.4499L81.1602 45.4929H77.4954L77.2056 47.2869H81.1815L80.8917 49H74.8065ZM82.2127 49L83.6616 40.2727H85.771L84.6119 47.2869H88.2425L87.9528 49H82.2127Z" fill="white"/>
</svg>
