<svg width="100" height="100" viewBox="0 0 100 100" fill="none" xmlns="http://www.w3.org/2000/svg">
<path d="M49.9997 8.33337C44.5279 8.33337 39.1098 9.41111 34.0545 11.5051C28.9993 13.599 24.406 16.6682 20.5369 20.5373C12.7229 28.3513 8.33301 38.9494 8.33301 50C8.33301 68.4167 20.2913 84.0417 36.833 89.5834C38.9163 89.9167 39.583 88.625 39.583 87.5V80.4584C28.0413 82.9584 25.583 74.875 25.583 74.875C23.6663 70.0417 20.958 68.75 20.958 68.75C17.1663 66.1667 21.2497 66.25 21.2497 66.25C25.4163 66.5417 27.6247 70.5417 27.6247 70.5417C31.2497 76.875 37.3747 75 39.7497 74C40.1247 71.2917 41.208 69.4584 42.3747 68.4167C33.1247 67.375 23.4163 63.7917 23.4163 47.9167C23.4163 43.2917 24.9997 39.5834 27.708 36.625C27.2913 35.5834 25.833 31.25 28.1247 25.625C28.1247 25.625 31.6247 24.5 39.583 29.875C42.8747 28.9584 46.458 28.5 49.9997 28.5C53.5413 28.5 57.1247 28.9584 60.4163 29.875C68.3747 24.5 71.8747 25.625 71.8747 25.625C74.1663 31.25 72.708 35.5834 72.2913 36.625C74.9997 39.5834 76.583 43.2917 76.583 47.9167C76.583 63.8334 66.833 67.3334 57.5413 68.375C59.0413 69.6667 60.4163 72.2084 60.4163 76.0834V87.5C60.4163 88.625 61.083 89.9584 63.208 89.5834C79.7497 84 91.6663 68.4167 91.6663 50C91.6663 44.5283 90.5886 39.1101 88.4947 34.0549C86.4007 28.9997 83.3316 24.4064 79.4625 20.5373C75.5933 16.6682 71 13.599 65.9448 11.5051C60.8896 9.41111 55.4714 8.33337 49.9997 8.33337Z" fill="black"/>
</svg>
