<svg width="100" height="100" viewBox="0 0 100 100" fill="none" xmlns="http://www.w3.org/2000/svg">
<path d="M89.65 6.25H10.35C8.08563 6.25 6.25 8.08563 6.25 10.35V89.65C6.25 91.9144 8.08563 93.75 10.35 93.75H89.65C91.9144 93.75 93.75 91.9144 93.75 89.65V10.35C93.75 8.08563 91.9144 6.25 89.65 6.25Z" fill="#3178C6"/>
<path fill-rule="evenodd" clip-rule="evenodd" d="M57.0155 74.2468V83.8343C58.7575 84.694 60.614 85.2992 62.528 85.6311C64.7399 86.0395 66.9851 86.2403 69.2343 86.2311C71.4264 86.2415 73.6135 86.0205 75.7593 85.5718C77.6858 85.1825 79.5239 84.4409 81.1812 83.3843C82.7197 82.3911 83.9878 81.0317 84.8718 79.428C86.455 76.1072 86.6638 72.2957 85.453 68.8218C84.9421 67.5227 84.1808 66.3366 83.2124 65.3311C82.173 64.2619 80.9922 63.3399 79.703 62.5905C78.2188 61.7212 76.6766 60.9548 75.0874 60.2968C73.8374 59.778 72.7124 59.2738 71.7124 58.7843C70.8242 58.359 69.9742 57.8582 69.1718 57.2874C68.5433 56.8468 67.9974 56.2988 67.5593 55.6686C67.1807 55.0965 66.9836 54.4234 66.9937 53.7374C66.9853 53.106 67.1612 52.4859 67.4999 51.953C67.8677 51.3953 68.3584 50.9292 68.9343 50.5905C69.6383 50.176 70.4043 49.8774 71.203 49.7061C72.1837 49.4883 73.186 49.3834 74.1905 49.3936C75.0353 49.3965 75.879 49.4571 76.7155 49.5749C77.6189 49.697 78.5128 49.8818 79.3905 50.128C80.2834 50.3755 81.1566 50.6888 82.003 51.0655C82.8244 51.4316 83.61 51.8731 84.3499 52.3843V43.4374C82.8096 42.8546 81.2123 42.4357 79.5843 42.1874C77.6183 41.9013 75.6333 41.7666 73.6468 41.7843C71.4753 41.7726 69.3101 42.0191 67.1968 42.5186C65.2866 42.9551 63.4703 43.731 61.8343 44.8093C60.3145 45.8217 59.0597 47.1837 58.1749 48.7811C57.2373 50.5551 56.7734 52.541 56.828 54.5468C56.7588 57.1992 57.6324 59.7903 59.2937 61.8593C61.3317 64.1533 63.9017 65.912 66.778 66.9811C68.0905 67.5228 69.3145 68.053 70.4499 68.5718C71.4743 69.0276 72.459 69.568 73.3937 70.1874C74.1475 70.6778 74.8096 71.2965 75.3499 72.0155C75.825 72.6676 76.077 73.4556 76.0687 74.2624C76.073 74.867 75.9177 75.462 75.6187 75.9874C75.2863 76.552 74.8193 77.0255 74.2593 77.3655C73.5585 77.7927 72.7919 78.101 71.9905 78.278C70.9466 78.5114 69.8789 78.6215 68.8093 78.6061C66.7102 78.6023 64.6279 78.2322 62.6562 77.5124C60.5962 76.769 58.6859 75.6631 57.0155 74.2468ZM40.9093 50.378H53.4093V42.4811H18.5562V50.378H30.9999V85.5468H40.9093V50.378Z" fill="white"/>
</svg>
