<svg width="100" height="100" viewBox="0 0 100 100" fill="none" xmlns="http://www.w3.org/2000/svg">
<g clip-path="url(#clip0_16_10)">
<path d="M76.5625 0H23.4375C10.4933 0 0 10.4933 0 23.4375V76.5625C0 89.5067 10.4933 100 23.4375 100H76.5625C89.5067 100 100 89.5067 100 76.5625V23.4375C100 10.4933 89.5067 0 76.5625 0Z" fill="#0277BD"/>
<path d="M20.9973 40.098L22.1152 52.5754H50.0375V40.098H20.9973ZM50.0371 14.8438H18.75L19.8844 27.3211H50.0371V14.8438ZM50.0371 85.4848V72.5031L49.9824 72.5176L36.0863 68.7656L35.198 58.8141H22.6727L24.4207 78.4055L49.9797 85.5008L50.0371 85.4848Z" fill="#EBEBEB"/>
<path d="M65.3586 52.5754L63.9102 68.7574L49.9941 72.5137V85.4945L75.5734 78.4055L75.7609 76.2973L78.693 43.4488L78.9973 40.098L81.25 14.8438H49.9941V27.3211H67.5758L66.4406 40.098H49.9941V52.5754H65.3586Z" fill="white"/>
</g>
<defs>
<clipPath id="clip0_16_10">
<rect width="100" height="100" fill="white"/>
</clipPath>
</defs>
</svg>
