<svg id="visual" viewBox="0 0 960 540" width="960" height="540" xmlns="http://www.w3.org/2000/svg" xmlns:xlink="http://www.w3.org/1999/xlink" version="1.1"><path d="M0 224L22.8 218.8C45.7 213.7 91.3 203.3 137 194.8C182.7 186.3 228.3 179.7 274 171.2C319.7 162.7 365.3 152.3 411.2 153.7C457 155 503 168 548.8 171.8C594.7 175.7 640.3 170.3 686 163.7C731.7 157 777.3 149 823 151.8C868.7 154.7 914.3 168.3 937.2 175.2L960 182L960 0L937.2 0C914.3 0 868.7 0 823 0C777.3 0 731.7 0 686 0C640.3 0 594.7 0 548.8 0C503 0 457 0 411.2 0C365.3 0 319.7 0 274 0C228.3 0 182.7 0 137 0C91.3 0 45.7 0 22.8 0L0 0Z" fill="#c0c0c0"></path><path d="M0 127L22.8 124.5C45.7 122 91.3 117 137 121.2C182.7 125.3 228.3 138.7 274 137.7C319.7 136.7 365.3 121.3 411.2 115.5C457 109.7 503 113.3 548.8 119.8C594.7 126.3 640.3 135.7 686 135C731.7 134.3 777.3 123.7 823 129.7C868.7 135.7 914.3 158.3 937.2 169.7L960 181L960 0L937.2 0C914.3 0 868.7 0 823 0C777.3 0 731.7 0 686 0C640.3 0 594.7 0 548.8 0C503 0 457 0 411.2 0C365.3 0 319.7 0 274 0C228.3 0 182.7 0 137 0C91.3 0 45.7 0 22.8 0L0 0Z" fill="#8c8c8c"></path><path d="M0 136L22.8 137.3C45.7 138.7 91.3 141.3 137 140.5C182.7 139.7 228.3 135.3 274 132C319.7 128.7 365.3 126.3 411.2 118.7C457 111 503 98 548.8 94.7C594.7 91.3 640.3 97.7 686 101.2C731.7 104.7 777.3 105.3 823 108.5C868.7 111.7 914.3 117.3 937.2 120.2L960 123L960 0L937.2 0C914.3 0 868.7 0 823 0C777.3 0 731.7 0 686 0C640.3 0 594.7 0 548.8 0C503 0 457 0 411.2 0C365.3 0 319.7 0 274 0C228.3 0 182.7 0 137 0C91.3 0 45.7 0 22.8 0L0 0Z" fill="#5b5b5b"></path><path d="M0 98L22.8 90C45.7 82 91.3 66 137 59.2C182.7 52.3 228.3 54.7 274 58C319.7 61.3 365.3 65.7 411.2 65.2C457 64.7 503 59.3 548.8 64.8C594.7 70.3 640.3 86.7 686 93.3C731.7 100 777.3 97 823 91.2C868.7 85.3 914.3 76.7 937.2 72.3L960 68L960 0L937.2 0C914.3 0 868.7 0 823 0C777.3 0 731.7 0 686 0C640.3 0 594.7 0 548.8 0C503 0 457 0 411.2 0C365.3 0 319.7 0 274 0C228.3 0 182.7 0 137 0C91.3 0 45.7 0 22.8 0L0 0Z" fill="#2f2f2f"></path><path d="M0 41L22.8 42.8C45.7 44.7 91.3 48.3 137 49C182.7 49.7 228.3 47.3 274 43C319.7 38.7 365.3 32.3 411.2 34C457 35.7 503 45.3 548.8 46.3C594.7 47.3 640.3 39.7 686 37.3C731.7 35 777.3 38 823 43.2C868.7 48.3 914.3 55.7 937.2 59.3L960 63L960 0L937.2 0C914.3 0 868.7 0 823 0C777.3 0 731.7 0 686 0C640.3 0 594.7 0 548.8 0C503 0 457 0 411.2 0C365.3 0 319.7 0 274 0C228.3 0 182.7 0 137 0C91.3 0 45.7 0 22.8 0L0 0Z" fill="#000000"></path></svg>